<svg width="38" height="28" viewBox="0 0 38 28" fill="none" xmlns="http://www.w3.org/2000/svg">
<path d="M34.656 3.84C30.56 5.504 28.512 8.032 28.512 11.424C28.512 13.152 28.832 14.24 29.472 14.688C30.176 15.072 31.168 15.264 32.448 15.264C34.432 15.328 35.808 15.904 36.576 16.992C37.344 18.08 37.728 19.328 37.728 20.736C37.728 22.656 37.12 24.256 35.904 25.536C34.688 26.752 32.928 27.36 30.624 27.36C27.68 27.36 25.632 26.56 24.48 24.96C23.392 23.296 22.848 21.28 22.848 18.912V15.168C22.848 10.944 23.904 7.584 26.016 5.088C28.128 2.592 31.008 0.896 34.656 0V3.84ZM11.712 4.032C7.68 5.632 5.664 8.128 5.664 11.52C5.664 13.248 5.984 14.336 6.624 14.784C7.328 15.168 8.32 15.36 9.6 15.36C11.584 15.424 12.96 16.032 13.728 17.184C14.496 18.272 14.88 19.488 14.88 20.832C14.88 22.752 14.272 24.352 13.056 25.632C11.84 26.912 10.08 27.552 7.776 27.552C4.832 27.552 2.784 26.72 1.632 25.056C0.544 23.392 0 21.408 0 19.104V15.264C0 11.104 1.056 7.776 3.168 5.28C5.28 2.784 8.128 1.056 11.712 0.0959988V4.032Z" fill="#B2CEE6"/>
</svg>
