<svg width="24" height="24" viewBox="0 0 24 24" fill="none" xmlns="http://www.w3.org/2000/svg">
<path d="M17.711 14.1998L12.1978 8.30877C12.0127 8.11107 11.7617 8 11.5 8C11.2383 8 10.9873 8.11107 10.8022 8.30877L5.28897 14.1998C5.15098 14.3473 5.05702 14.5352 5.01895 14.7397C4.98089 14.9443 5.00043 15.1563 5.07512 15.3489C5.1498 15.5416 5.27627 15.7063 5.43854 15.8222C5.60081 15.9381 5.79159 16 5.98676 16H17.0132C17.2084 16 17.3992 15.9381 17.5615 15.8222C17.7237 15.7063 17.8502 15.5416 17.9249 15.3489C17.9996 15.1563 18.0191 14.9443 17.981 14.7397C17.943 14.5352 17.849 14.3473 17.711 14.1998Z" fill="#4D4D4D"/>
</svg>
