<svg width="24" height="24" viewBox="0 0 24 24" fill="none" xmlns="http://www.w3.org/2000/svg">
<path fill-rule="evenodd" clip-rule="evenodd" d="M15.7984 9.02127C15.1519 8.99403 14.509 9.12466 13.9326 9.40035C13.3563 9.67603 12.8664 10.0873 12.5109 10.5938V9.00928H9.34293V19H12.5333V14.1845C12.5333 12.9137 12.8448 11.6868 14.672 11.6868C16.5557 11.6868 16.8 13.1394 16.8 14.2684V19H20V13.66C20 11.0374 19.2533 9.02127 15.7984 9.02127Z" fill="#4D4D4D"/>
<path fill-rule="evenodd" clip-rule="evenodd" d="M5.6 5C5.28355 5 4.97421 5.08789 4.71109 5.25256C4.44797 5.41723 4.24289 5.65128 4.12179 5.92512C4.00069 6.19895 3.96901 6.50027 4.03074 6.79097C4.09248 7.08167 4.24487 7.3487 4.46863 7.55828C4.69239 7.76787 4.97749 7.9106 5.28786 7.96842C5.59823 8.02625 5.91993 7.99657 6.21229 7.88314C6.50466 7.76972 6.75454 7.57764 6.93035 7.33119C7.10616 7.08475 7.2 6.79501 7.2 6.49861C7.2 6.10115 7.03143 5.71998 6.73137 5.43893C6.43131 5.15789 6.02435 5 5.6 5Z" fill="#4D4D4D"/>
<path d="M7.2 9.02127H4V19H7.2V9.02127Z" fill="#4D4D4D"/>
</svg>
